<?xml version="1.0" encoding="utf-8"?>
<!-- Generator: Adobe Illustrator 16.2.1, SVG Export Plug-In . SVG Version: 6.00 Build 0)  -->
<!DOCTYPE svg PUBLIC "-//W3C//DTD SVG 1.1//EN" "http://www.w3.org/Graphics/SVG/1.1/DTD/svg11.dtd">
<svg version="1.1" id="Layer_1" xmlns="http://www.w3.org/2000/svg" xmlns:xlink="http://www.w3.org/1999/xlink" x="0px" y="0px"
	 width="22.25px" height="37.084px" viewBox="0 0 22.25 37.084" enable-background="new 0 0 22.25 37.084" xml:space="preserve">
<g>
	<path id="svg_2" fill="#5B5B5B" stroke="#4C4C4C" stroke-width="0.8493" stroke-miterlimit="10" d="M11.055,34.517
		c-0.778-3.809-2.142-6.978-3.799-9.917c-1.23-2.177-2.652-4.188-3.97-6.303c-0.44-0.703-0.821-1.452-1.244-2.181
		c-0.844-1.467-1.531-3.166-1.484-5.368c0.04-2.146,0.663-3.872,1.561-5.284C3.593,3.143,6.063,1.241,9.38,0.742
		c2.713-0.407,5.253,0.285,7.056,1.337c1.473,0.863,2.614,2.011,3.481,3.369c0.904,1.414,1.527,3.084,1.581,5.265
		c0.025,1.12-0.156,2.153-0.415,3.011c-0.262,0.866-0.678,1.597-1.054,2.373c-0.73,1.512-1.644,2.902-2.558,4.287
		C14.739,24.519,12.179,28.734,11.055,34.517z"/>
	<g>
		<g>
			<g>
				<defs>
					<polygon id="SVGID_1_" points="21.5,0.662 11.055,0.624 11.055,34.517 21.5,34.555 					"/>
				</defs>
				<clipPath id="SVGID_2_">
					<use xlink:href="#SVGID_1_"  overflow="visible"/>
				</clipPath>
				<path id="svg_2_1_" clip-path="url(#SVGID_2_)" fill="#4C4C4C" d="M11.055,34.517c-0.778-3.809-2.142-6.978-3.799-9.917
					c-1.23-2.177-2.652-4.188-3.97-6.303c-0.44-0.703-0.821-1.452-1.244-2.181c-0.844-1.467-1.531-3.166-1.484-5.368
					c0.04-2.146,0.663-3.872,1.561-5.284C3.593,3.143,6.063,1.241,9.38,0.742c2.713-0.407,5.253,0.285,7.056,1.337
					c1.473,0.863,2.614,2.011,3.481,3.369c0.904,1.414,1.527,3.084,1.581,5.265c0.025,1.12-0.156,2.153-0.415,3.011
					c-0.262,0.866-0.678,1.597-1.054,2.373c-0.73,1.512-1.644,2.902-2.558,4.287C14.739,24.519,12.179,28.734,11.055,34.517z"/>
			</g>
		</g>
	</g>
</g>
<g opacity="0.9" enable-background="new    ">
	<g>
		<defs>
			<rect id="SVGID_3_" x="11.028" y="2.744" width="5.891" height="18.5"/>
		</defs>
		<clipPath id="SVGID_4_">
			<use xlink:href="#SVGID_3_"  overflow="visible"/>
		</clipPath>
		<g clip-path="url(#SVGID_4_)">
			<path fill="#6BD17C" d="M11.103,5.793c0,0-2.791,3.876-2.791,6.459c0,2.216,1.403,3.324,2.356,3.595l0.435-7.367l0.29,7.4
				c0.951-0.194,2.498-1.297,2.498-3.628C13.891,9.669,11.103,5.793,11.103,5.793z"/>
			<g>
				<polygon fill="none" points="10.676,17.337 11.059,17.671 11.442,17.337 11.059,17.062 				"/>
				<path fill="#F9E100" d="M10.659,17.35l0.018-0.013l-0.032-0.03C10.647,17.319,10.652,17.337,10.659,17.35z"/>
			</g>
		</g>
	</g>
</g>
<g opacity="0.8" enable-background="new    ">
	<g>
		<defs>
			<rect id="SVGID_5_" x="5.186" y="2.744" width="5.842" height="18.5"/>
		</defs>
		<clipPath id="SVGID_6_">
			<use xlink:href="#SVGID_5_"  overflow="visible"/>
		</clipPath>
		<g clip-path="url(#SVGID_6_)">
			<path fill="#6BD17C" d="M11.103,5.793c0,0-2.791,3.876-2.791,6.459c0,2.216,1.403,3.324,2.356,3.595l0.435-7.367l0.29,7.4
				c0.951-0.194,2.498-1.297,2.498-3.628C13.891,9.669,11.103,5.793,11.103,5.793z"/>
		</g>
	</g>
</g>
</svg>
