<?xml version="1.0" encoding="utf-8"?>
<!-- Generator: Adobe Illustrator 16.2.1, SVG Export Plug-In . SVG Version: 6.00 Build 0)  -->
<!DOCTYPE svg PUBLIC "-//W3C//DTD SVG 1.1//EN" "http://www.w3.org/Graphics/SVG/1.1/DTD/svg11.dtd">
<svg version="1.1" id="Layer_1" xmlns="http://www.w3.org/2000/svg" xmlns:xlink="http://www.w3.org/1999/xlink" x="0px" y="0px"
	 width="22.25px" height="37.084px" viewBox="0 0 22.25 37.084" enable-background="new 0 0 22.25 37.084" xml:space="preserve">
<g>
	<g>
		<path id="svg_2" fill="#5B5B5B" stroke="#4C4C4C" stroke-width="0.8493" stroke-miterlimit="10" d="M11.151,34.517
			c-0.778-3.809-2.142-6.978-3.798-9.916c-1.23-2.178-2.652-4.188-3.97-6.304c-0.44-0.703-0.821-1.452-1.244-2.181
			c-0.844-1.467-1.531-3.166-1.484-5.368c0.04-2.146,0.663-3.872,1.561-5.284C3.69,3.143,6.16,1.241,9.477,0.742
			c2.712-0.407,5.251,0.285,7.055,1.337c1.473,0.863,2.614,2.011,3.481,3.369c0.903,1.414,1.526,3.084,1.58,5.265
			c0.025,1.12-0.156,2.153-0.414,3.011c-0.263,0.866-0.679,1.597-1.055,2.373c-0.73,1.512-1.645,2.902-2.559,4.287
			C14.836,24.519,12.275,28.733,11.151,34.517z"/>
		<g>
			<g>
				<g>
					<g>
						<defs>
							<polygon id="SVGID_1_" points="21.598,0.662 11.151,0.624 11.151,34.517 21.598,34.556 							"/>
						</defs>
						<clipPath id="SVGID_2_">
							<use xlink:href="#SVGID_1_"  overflow="visible"/>
						</clipPath>
						<path id="svg_2_1_" clip-path="url(#SVGID_2_)" fill="#4C4C4C" d="M11.151,34.517c-0.778-3.809-2.142-6.978-3.798-9.916
							c-1.23-2.178-2.652-4.188-3.97-6.304c-0.44-0.703-0.821-1.452-1.244-2.181c-0.844-1.467-1.531-3.166-1.484-5.368
							c0.04-2.146,0.663-3.872,1.561-5.284C3.69,3.143,6.16,1.241,9.477,0.742c2.712-0.407,5.251,0.285,7.055,1.337
							c1.473,0.863,2.614,2.011,3.481,3.369c0.903,1.414,1.526,3.084,1.58,5.265c0.025,1.12-0.156,2.153-0.414,3.011
							c-0.263,0.866-0.679,1.597-1.055,2.373c-0.73,1.512-1.645,2.902-2.559,4.287C14.836,24.519,12.275,28.733,11.151,34.517z"/>
					</g>
				</g>
			</g>
		</g>
	</g>
	<g enable-background="new    ">
		<g>
			<g>
				<defs>
					<rect id="SVGID_3_" x="11.125" y="2.744" width="5.891" height="18.5"/>
				</defs>
				<clipPath id="SVGID_4_">
					<use xlink:href="#SVGID_3_"  overflow="visible"/>
				</clipPath>
				<g clip-path="url(#SVGID_4_)">
					<path fill="#CC3333" d="M11.199,5.793c0,0-2.79,3.876-2.79,6.459c0,2.216,1.402,3.324,2.355,3.595l0.435-7.367l0.29,7.4
						c0.951-0.194,2.498-1.297,2.498-3.628C13.986,9.669,11.199,5.793,11.199,5.793z"/>
					<g>
						<polygon fill="none" points="10.772,17.337 11.155,17.671 11.539,17.337 11.155,17.062 						"/>
						<path fill="#F9E100" d="M10.756,17.35l0.018-0.013l-0.032-0.03C10.744,17.319,10.749,17.337,10.756,17.35z"/>
					</g>
				</g>
			</g>
		</g>
	</g>
	<g enable-background="new    ">
		<g>
			<g>
				<defs>
					<rect id="SVGID_5_" x="5.283" y="2.744" width="5.842" height="18.5"/>
				</defs>
				<clipPath id="SVGID_6_">
					<use xlink:href="#SVGID_5_"  overflow="visible"/>
				</clipPath>
				<g clip-path="url(#SVGID_6_)">
					<path fill="#E24B36" d="M11.199,5.793c0,0-2.79,3.876-2.79,6.459c0,2.216,1.402,3.324,2.355,3.595l0.435-7.367l0.29,7.4
						c0.951-0.194,2.498-1.297,2.498-3.628C13.986,9.669,11.199,5.793,11.199,5.793z"/>
				</g>
			</g>
		</g>
	</g>
</g>
</svg>
